<svg width="24" height="25" viewBox="0 0 24 25" fill="none" xmlns="http://www.w3.org/2000/svg">
    <path d="M9.12505 21.2446L0.700049 12.8446C0.600049 12.7446 0.529382 12.6362 0.488049 12.5196C0.446049 12.4029 0.425049 12.2779 0.425049 12.1446C0.425049 12.0112 0.446049 11.8862 0.488049 11.7696C0.529382 11.6529 0.600049 11.5446 0.700049 11.4446L9.12505 3.01956C9.35838 2.78622 9.65005 2.66956 10 2.66956C10.35 2.66956 10.65 2.79456 10.9 3.04456C11.15 3.29456 11.275 3.58622 11.275 3.91956C11.275 4.25289 11.15 4.54456 10.9 4.79456L3.55005 12.1446L10.9 19.4946C11.1334 19.7279 11.25 20.0152 11.25 20.3566C11.25 20.6986 11.125 20.9946 10.875 21.2446C10.625 21.4946 10.3334 21.6196 10 21.6196C9.66672 21.6196 9.37505 21.4946 9.12505 21.2446Z" fill="white" />
</svg>
