<svg width="18" height="18" viewBox="0 0 18 18" fill="none" xmlns="http://www.w3.org/2000/svg">
    <path d="M7.95 10.35L6.31875 8.71875C6.18125 8.58125 6.0125 8.5125 5.8125 8.5125C5.6125 8.5125 5.4375 8.5875 5.2875 8.7375C5.15 8.875 5.08125 9.05 5.08125 9.2625C5.08125 9.475 5.15 9.65 5.2875 9.7875L7.425 11.925C7.5625 12.0625 7.7375 12.1312 7.95 12.1312C8.1625 12.1312 8.3375 12.0625 8.475 11.925L12.7313 7.66875C12.8688 7.53125 12.9375 7.3625 12.9375 7.1625C12.9375 6.9625 12.8625 6.7875 12.7125 6.6375C12.575 6.5 12.4 6.43125 12.1875 6.43125C11.975 6.43125 11.8 6.5 11.6625 6.6375L7.95 10.35ZM9 16.5C7.9625 16.5 6.9875 16.303 6.075 15.909C5.1625 15.5155 4.36875 14.9813 3.69375 14.3063C3.01875 13.6313 2.4845 12.8375 2.091 11.925C1.697 11.0125 1.5 10.0375 1.5 9C1.5 7.9625 1.697 6.9875 2.091 6.075C2.4845 5.1625 3.01875 4.36875 3.69375 3.69375C4.36875 3.01875 5.1625 2.48425 6.075 2.09025C6.9875 1.69675 7.9625 1.5 9 1.5C10.0375 1.5 11.0125 1.69675 11.925 2.09025C12.8375 2.48425 13.6313 3.01875 14.3063 3.69375C14.9813 4.36875 15.5155 5.1625 15.909 6.075C16.303 6.9875 16.5 7.9625 16.5 9C16.5 10.0375 16.303 11.0125 15.909 11.925C15.5155 12.8375 14.9813 13.6313 14.3063 14.3063C13.6313 14.9813 12.8375 15.5155 11.925 15.909C11.0125 16.303 10.0375 16.5 9 16.5Z" fill="#3EFFBE" />
</svg>
