<svg width="188" height="53" viewBox="0 0 188 53" fill="none" xmlns="http://www.w3.org/2000/svg">
    <rect x="1.25" y="0.75" width="185.5" height="51.5" rx="4.75" fill="#6138D2" />
    <path d="M39.67 31.68C42.25 31.68 44.215 30.42 44.215 27.72H42.295C42.295 29.22 41.26 30.03 39.7 30.03C37.63 30.03 36.685 28.875 36.685 26.52V26.19C36.685 23.88 37.645 22.68 39.7 22.68C41.17 22.68 42.22 23.505 42.22 25.005H44.215C44.215 22.32 42.22 21.03 39.67 21.03C36.52 21.03 34.675 22.74 34.675 26.355C34.675 30.075 36.52 31.68 39.67 31.68ZM51.6755 31.68C54.9005 31.68 56.8655 29.97 56.8655 26.355C56.8655 22.74 54.9005 21.03 51.6755 21.03C48.4505 21.03 46.4855 22.74 46.4855 26.355C46.4855 29.97 48.4505 31.68 51.6755 31.68ZM51.6755 30.03C49.6055 30.03 48.4955 28.83 48.4955 26.535V26.205C48.4955 23.88 49.6055 22.68 51.6755 22.68C53.7455 22.68 54.8705 23.88 54.8705 26.205V26.535C54.8705 28.83 53.7455 30.03 51.6755 30.03ZM59.6839 31.5H61.5589V24.57H61.6339C61.7089 24.72 61.9639 25.14 62.1289 25.38L66.5389 31.5H68.3839V21.21H66.5089V28.08H66.4339C66.3589 27.9 66.0889 27.48 65.9389 27.285L61.5439 21.21H59.6839V31.5ZM74.1903 31.5H76.1403V22.89H79.4403V21.21H70.9053V22.89H74.1903V31.5ZM81.9574 31.5H83.9074V21.21H81.9574V31.5ZM87.1908 31.5H89.0658V24.57H89.1408C89.2158 24.72 89.4708 25.14 89.6358 25.38L94.0458 31.5H95.8908V21.21H94.0158V28.08H93.9408C93.8658 27.9 93.5958 27.48 93.4458 27.285L89.0508 21.21H87.1908V31.5ZM103.452 31.68C106.182 31.68 107.817 30.375 107.817 27.69V21.21H105.867V27.63C105.867 29.22 104.967 30.03 103.452 30.03C101.937 30.03 101.067 29.22 101.067 27.63V21.21H99.1171V27.69C99.1171 30.375 100.737 31.68 103.452 31.68ZM111.032 31.5H119.147V29.835H112.982V27.075H118.397V25.41H112.982V22.875H119.057V21.21H111.032V31.5Z" fill="white" />
    <path d="M143.125 33.8001L149.725 27.2001C149.825 27.1001 149.896 26.9917 149.938 26.8751C149.979 26.7584 150 26.6334 150 26.5001C150 26.3667 149.979 26.2417 149.938 26.1251C149.896 26.0084 149.825 25.9001 149.725 25.8001L143.125 19.2001C142.942 19.0167 142.713 18.9207 142.438 18.9121C142.163 18.9041 141.925 19.0001 141.725 19.2001C141.525 19.3834 141.421 19.6124 141.412 19.8871C141.404 20.1624 141.5 20.4001 141.7 20.6001L146.6 25.5001H135.425C135.142 25.5001 134.904 25.5957 134.712 25.7871C134.521 25.9791 134.425 26.2167 134.425 26.5001C134.425 26.7834 134.521 27.0207 134.712 27.2121C134.904 27.4041 135.142 27.5001 135.425 27.5001H146.6L141.7 32.4001C141.517 32.5834 141.421 32.8167 141.412 33.1001C141.404 33.3834 141.5 33.6167 141.7 33.8001C141.883 34.0001 142.117 34.1001 142.4 34.1001C142.683 34.1001 142.925 34.0001 143.125 33.8001Z" fill="white" />
    <rect x="1.25" y="0.75" width="185.5" height="51.5" rx="4.75" stroke="#121212" stroke-width="1.5" />
</svg>
