<svg width="17" height="17" viewBox="0 0 17 17" fill="none" xmlns="http://www.w3.org/2000/svg">
    <rect x="0.75" y="0.452881" width="15.5" height="15.5" rx="1.1875" fill="#3EFFBE" />
    <path d="M5.21875 11.1195V7.78621V6.11955C5.21875 5.65931 5.59185 5.28621 6.05208 5.28621H7.30208H9.80208H11.0521C11.5123 5.28621 11.8854 5.65931 11.8854 6.11955V7.78621V11.1195C11.8854 11.5798 11.5123 11.9529 11.0521 11.9529H6.05208C5.59185 11.9529 5.21875 11.5798 5.21875 11.1195Z" fill="#723FFF" />
    <path d="M9.80208 4.45288V6.11955M7.30208 4.45288V6.11955M5.21875 7.78621H11.8854M11.8854 7.78621V11.1195C11.8854 11.5798 11.5123 11.9529 11.0521 11.9529H6.05208C5.59185 11.9529 5.21875 11.5798 5.21875 11.1195V6.11955C5.21875 5.65931 5.59185 5.28621 6.05208 5.28621H11.0521C11.5123 5.28621 11.8854 5.65931 11.8854 6.11955V7.78621Z" stroke="#363636" stroke-width="0.46875" stroke-linecap="round" stroke-linejoin="round" />
    <rect x="6.15625" y="8.43726" width="0.46875" height="0.46875" fill="white" />
    <rect x="6.15625" y="10.0779" width="0.46875" height="0.46875" fill="white" />
    <rect x="8.26562" y="8.43726" width="0.46875" height="0.46875" fill="white" />
    <rect x="8.26562" y="10.0779" width="0.46875" height="0.46875" fill="white" />
    <rect x="10.375" y="8.43726" width="0.46875" height="0.46875" fill="white" />
    <rect x="10.375" y="10.0779" width="0.46875" height="0.46875" fill="white" />
    <rect x="0.75" y="0.452881" width="15.5" height="15.5" rx="1.1875" stroke="#363636" stroke-width="0.5" />
</svg>
