<svg width="107" height="31" viewBox="0 0 107 31" fill="none" xmlns="http://www.w3.org/2000/svg">
    <mask id="path-1-outside-1_81_684" maskUnits="userSpaceOnUse" x="0" y="0" width="107" height="31" fill="black">
        <rect fill="white" width="107" height="31" />
        <path d="M1 8.56545H14.0851V12.2956H4.90776V17.0323H13.7298V20.7624H4.90776V25.5583H14.4403V29.2884H1V8.56545Z" />
        <path d="M16.344 14.6047H20.3702L23.8339 27.5122H24.3667L27.8304 14.6047H31.8566L27.6528 29.2884H20.5478L16.344 14.6047Z" />
        <path d="M37.1648 23.1603C37.1845 23.5945 37.2832 23.9991 37.4608 24.3741C37.6582 24.7294 37.9148 25.0451 38.2305 25.3214C38.5661 25.578 38.941 25.7852 39.3555 25.9431C39.7897 26.0813 40.2436 26.1504 40.7173 26.1504C41.6449 26.1504 42.3554 25.9925 42.8488 25.6767C43.3422 25.3412 43.6975 24.9465 43.9146 24.4925L47.1118 26.2688C46.9342 26.6438 46.6875 27.0385 46.3717 27.4529C46.0559 27.8477 45.6415 28.2128 45.1283 28.5483C44.6349 28.8838 44.0231 29.1601 43.2929 29.3772C42.5824 29.5943 41.7436 29.7029 40.7765 29.7029C39.6713 29.7029 38.6647 29.5252 37.7569 29.17C36.849 28.8147 36.0596 28.3016 35.3885 27.6306C34.7372 26.9595 34.2241 26.1405 33.8491 25.1734C33.4939 24.2063 33.3162 23.111 33.3162 21.8874V21.7097C33.3162 20.5848 33.5037 19.5585 33.8787 18.6309C34.2734 17.7033 34.8063 16.9138 35.4773 16.2626C36.1484 15.6113 36.928 15.108 37.8161 14.7527C38.7239 14.3777 39.691 14.1903 40.7173 14.1903C41.9804 14.1903 43.0659 14.4172 43.9738 14.8712C44.8816 15.3053 45.6316 15.8678 46.2237 16.5586C46.8158 17.2296 47.25 17.9796 47.5263 18.8085C47.8026 19.6177 47.9407 20.4071 47.9407 21.1769V23.1603H37.1648ZM40.6877 17.5651C39.7404 17.5651 38.9706 17.8118 38.3786 18.3052C37.7865 18.7789 37.4016 19.3315 37.224 19.9631H44.1514C44.033 19.2723 43.658 18.7 43.0264 18.246C42.4146 17.7921 41.635 17.5651 40.6877 17.5651Z" />
        <path d="M54.1074 29.2884H50.3773V14.6047H54.1074V16.7954H54.6403C54.9758 15.9665 55.5186 15.3251 56.2685 14.8712C57.0185 14.4172 57.8968 14.1903 58.9033 14.1903C59.6138 14.1903 60.275 14.3087 60.8868 14.5455C61.5183 14.7626 62.071 15.108 62.5446 15.5817C63.0183 16.0553 63.3834 16.6573 63.64 17.3875C63.9163 18.1177 64.0544 18.9861 64.0544 19.9927V29.2884H60.3243V20.94C60.3243 19.894 60.0677 19.075 59.5546 18.4829C59.0612 17.871 58.3408 17.5651 57.3935 17.5651C56.2883 17.5651 55.4593 17.9401 54.9067 18.6901C54.3739 19.4203 54.1074 20.4071 54.1074 21.6505V29.2884Z" />
        <path d="M66.4614 14.6047H70.8132V8.56545H74.5434V14.6047H79.8425V18.1572H74.5434V24.8478C74.5434 25.4399 74.8098 25.7359 75.3427 25.7359H79.3096V29.2884H73.0928C72.4217 29.2884 71.8691 29.0713 71.4349 28.6371C71.0205 28.2029 70.8132 27.6503 70.8132 26.9793V18.1572H66.4614V14.6047Z" />
        <path d="M94.5785 9.55233L88.8344 1H83.0982L87.5319 13.3296L102.808 6.17608L105 1H99.2638L94.5785 9.55233Z" />
        <path d="M102.578 6.71782L88.1382 15.0156L88.6084 16.3232L101.341 9.63982L102.578 6.71782Z" />
        <path d="M100.498 11.6304L87.5413 19.6723L87.1613 19.8564L86.7826 20.716L99.4704 14.056L100.498 11.6304Z" />
        <path d="M83.0982 29.0792L85.2405 24.2164L87.6708 23.0387L99.3931 15.7628L105 29.0792H99.2638L94.5785 20.0783L88.8344 29.0792H83.0982Z" />
    </mask>
    <path d="M1 8.56545H14.0851V12.2956H4.90776V17.0323H13.7298V20.7624H4.90776V25.5583H14.4403V29.2884H1V8.56545Z" fill="#FDFDFD" />
    <path d="M16.344 14.6047H20.3702L23.8339 27.5122H24.3667L27.8304 14.6047H31.8566L27.6528 29.2884H20.5478L16.344 14.6047Z" fill="#FDFDFD" />
    <path d="M37.1648 23.1603C37.1845 23.5945 37.2832 23.9991 37.4608 24.3741C37.6582 24.7294 37.9148 25.0451 38.2305 25.3214C38.5661 25.578 38.941 25.7852 39.3555 25.9431C39.7897 26.0813 40.2436 26.1504 40.7173 26.1504C41.6449 26.1504 42.3554 25.9925 42.8488 25.6767C43.3422 25.3412 43.6975 24.9465 43.9146 24.4925L47.1118 26.2688C46.9342 26.6438 46.6875 27.0385 46.3717 27.4529C46.0559 27.8477 45.6415 28.2128 45.1283 28.5483C44.6349 28.8838 44.0231 29.1601 43.2929 29.3772C42.5824 29.5943 41.7436 29.7029 40.7765 29.7029C39.6713 29.7029 38.6647 29.5252 37.7569 29.17C36.849 28.8147 36.0596 28.3016 35.3885 27.6306C34.7372 26.9595 34.2241 26.1405 33.8491 25.1734C33.4939 24.2063 33.3162 23.111 33.3162 21.8874V21.7097C33.3162 20.5848 33.5037 19.5585 33.8787 18.6309C34.2734 17.7033 34.8063 16.9138 35.4773 16.2626C36.1484 15.6113 36.928 15.108 37.8161 14.7527C38.7239 14.3777 39.691 14.1903 40.7173 14.1903C41.9804 14.1903 43.0659 14.4172 43.9738 14.8712C44.8816 15.3053 45.6316 15.8678 46.2237 16.5586C46.8158 17.2296 47.25 17.9796 47.5263 18.8085C47.8026 19.6177 47.9407 20.4071 47.9407 21.1769V23.1603H37.1648ZM40.6877 17.5651C39.7404 17.5651 38.9706 17.8118 38.3786 18.3052C37.7865 18.7789 37.4016 19.3315 37.224 19.9631H44.1514C44.033 19.2723 43.658 18.7 43.0264 18.246C42.4146 17.7921 41.635 17.5651 40.6877 17.5651Z" fill="#FDFDFD" />
    <path d="M54.1074 29.2884H50.3773V14.6047H54.1074V16.7954H54.6403C54.9758 15.9665 55.5186 15.3251 56.2685 14.8712C57.0185 14.4172 57.8968 14.1903 58.9033 14.1903C59.6138 14.1903 60.275 14.3087 60.8868 14.5455C61.5183 14.7626 62.071 15.108 62.5446 15.5817C63.0183 16.0553 63.3834 16.6573 63.64 17.3875C63.9163 18.1177 64.0544 18.9861 64.0544 19.9927V29.2884H60.3243V20.94C60.3243 19.894 60.0677 19.075 59.5546 18.4829C59.0612 17.871 58.3408 17.5651 57.3935 17.5651C56.2883 17.5651 55.4593 17.9401 54.9067 18.6901C54.3739 19.4203 54.1074 20.4071 54.1074 21.6505V29.2884Z" fill="#FDFDFD" />
    <path d="M66.4614 14.6047H70.8132V8.56545H74.5434V14.6047H79.8425V18.1572H74.5434V24.8478C74.5434 25.4399 74.8098 25.7359 75.3427 25.7359H79.3096V29.2884H73.0928C72.4217 29.2884 71.8691 29.0713 71.4349 28.6371C71.0205 28.2029 70.8132 27.6503 70.8132 26.9793V18.1572H66.4614V14.6047Z" fill="#FDFDFD" />
    <path d="M94.5785 9.55233L88.8344 1H83.0982L87.5319 13.3296L102.808 6.17608L105 1H99.2638L94.5785 9.55233Z" fill="#FDFDFD" />
    <path d="M102.578 6.71782L88.1382 15.0156L88.6084 16.3232L101.341 9.63982L102.578 6.71782Z" fill="#FDFDFD" />
    <path d="M100.498 11.6304L87.5413 19.6723L87.1613 19.8564L86.7826 20.716L99.4704 14.056L100.498 11.6304Z" fill="#FDFDFD" />
    <path d="M83.0982 29.0792L85.2405 24.2164L87.6708 23.0387L99.3931 15.7628L105 29.0792H99.2638L94.5785 20.0783L88.8344 29.0792H83.0982Z" fill="#FDFDFD" />
    <path d="M1 8.56545H14.0851V12.2956H4.90776V17.0323H13.7298V20.7624H4.90776V25.5583H14.4403V29.2884H1V8.56545Z" stroke="#121212" stroke-width="1.78925" mask="url(#path-1-outside-1_81_684)" />
    <path d="M16.344 14.6047H20.3702L23.8339 27.5122H24.3667L27.8304 14.6047H31.8566L27.6528 29.2884H20.5478L16.344 14.6047Z" stroke="#121212" stroke-width="1.78925" mask="url(#path-1-outside-1_81_684)" />
    <path d="M37.1648 23.1603C37.1845 23.5945 37.2832 23.9991 37.4608 24.3741C37.6582 24.7294 37.9148 25.0451 38.2305 25.3214C38.5661 25.578 38.941 25.7852 39.3555 25.9431C39.7897 26.0813 40.2436 26.1504 40.7173 26.1504C41.6449 26.1504 42.3554 25.9925 42.8488 25.6767C43.3422 25.3412 43.6975 24.9465 43.9146 24.4925L47.1118 26.2688C46.9342 26.6438 46.6875 27.0385 46.3717 27.4529C46.0559 27.8477 45.6415 28.2128 45.1283 28.5483C44.6349 28.8838 44.0231 29.1601 43.2929 29.3772C42.5824 29.5943 41.7436 29.7029 40.7765 29.7029C39.6713 29.7029 38.6647 29.5252 37.7569 29.17C36.849 28.8147 36.0596 28.3016 35.3885 27.6306C34.7372 26.9595 34.2241 26.1405 33.8491 25.1734C33.4939 24.2063 33.3162 23.111 33.3162 21.8874V21.7097C33.3162 20.5848 33.5037 19.5585 33.8787 18.6309C34.2734 17.7033 34.8063 16.9138 35.4773 16.2626C36.1484 15.6113 36.928 15.108 37.8161 14.7527C38.7239 14.3777 39.691 14.1903 40.7173 14.1903C41.9804 14.1903 43.0659 14.4172 43.9738 14.8712C44.8816 15.3053 45.6316 15.8678 46.2237 16.5586C46.8158 17.2296 47.25 17.9796 47.5263 18.8085C47.8026 19.6177 47.9407 20.4071 47.9407 21.1769V23.1603H37.1648ZM40.6877 17.5651C39.7404 17.5651 38.9706 17.8118 38.3786 18.3052C37.7865 18.7789 37.4016 19.3315 37.224 19.9631H44.1514C44.033 19.2723 43.658 18.7 43.0264 18.246C42.4146 17.7921 41.635 17.5651 40.6877 17.5651Z" stroke="#121212" stroke-width="1.78925" mask="url(#path-1-outside-1_81_684)" />
    <path d="M54.1074 29.2884H50.3773V14.6047H54.1074V16.7954H54.6403C54.9758 15.9665 55.5186 15.3251 56.2685 14.8712C57.0185 14.4172 57.8968 14.1903 58.9033 14.1903C59.6138 14.1903 60.275 14.3087 60.8868 14.5455C61.5183 14.7626 62.071 15.108 62.5446 15.5817C63.0183 16.0553 63.3834 16.6573 63.64 17.3875C63.9163 18.1177 64.0544 18.9861 64.0544 19.9927V29.2884H60.3243V20.94C60.3243 19.894 60.0677 19.075 59.5546 18.4829C59.0612 17.871 58.3408 17.5651 57.3935 17.5651C56.2883 17.5651 55.4593 17.9401 54.9067 18.6901C54.3739 19.4203 54.1074 20.4071 54.1074 21.6505V29.2884Z" stroke="#121212" stroke-width="1.78925" mask="url(#path-1-outside-1_81_684)" />
    <path d="M66.4614 14.6047H70.8132V8.56545H74.5434V14.6047H79.8425V18.1572H74.5434V24.8478C74.5434 25.4399 74.8098 25.7359 75.3427 25.7359H79.3096V29.2884H73.0928C72.4217 29.2884 71.8691 29.0713 71.4349 28.6371C71.0205 28.2029 70.8132 27.6503 70.8132 26.9793V18.1572H66.4614V14.6047Z" stroke="#121212" stroke-width="1.78925" mask="url(#path-1-outside-1_81_684)" />
    <path d="M94.5785 9.55233L88.8344 1H83.0982L87.5319 13.3296L102.808 6.17608L105 1H99.2638L94.5785 9.55233Z" stroke="#121212" stroke-width="1.78925" mask="url(#path-1-outside-1_81_684)" />
    <path d="M102.578 6.71782L88.1382 15.0156L88.6084 16.3232L101.341 9.63982L102.578 6.71782Z" stroke="#121212" stroke-width="1.78925" mask="url(#path-1-outside-1_81_684)" />
    <path d="M100.498 11.6304L87.5413 19.6723L87.1613 19.8564L86.7826 20.716L99.4704 14.056L100.498 11.6304Z" stroke="#121212" stroke-width="1.78925" mask="url(#path-1-outside-1_81_684)" />
    <path d="M83.0982 29.0792L85.2405 24.2164L87.6708 23.0387L99.3931 15.7628L105 29.0792H99.2638L94.5785 20.0783L88.8344 29.0792H83.0982Z" stroke="#121212" stroke-width="1.78925" mask="url(#path-1-outside-1_81_684)" />
</svg>
