<svg width="194" height="236" viewBox="0 0 194 236" fill="none" xmlns="http://www.w3.org/2000/svg">
<mask id="path-1-outside-1_55_586" maskUnits="userSpaceOnUse" x="0" y="0" width="194" height="236" fill="black">
<rect fill="white" width="194" height="236"/>
<path d="M100.947 75.0074L55.9429 8H11L45.738 104.602L165.424 48.5545L182.6 8H137.657L100.947 75.0074Z"/>
<path d="M163.626 52.799L50.4881 117.812L54.1724 128.057L153.93 75.6928L163.626 52.799Z"/>
<path d="M147.325 91.2889L45.8112 154.297L42.8342 155.74L39.8672 162.475L139.276 110.294L147.325 91.2889Z"/>
<path d="M11 228L27.7851 189.9L46.8261 180.673L138.67 123.666L182.6 228H137.657L100.947 157.478L55.9429 228H11Z"/>
</mask>
<path d="M100.947 75.0074L55.9429 8H11L45.738 104.602L165.424 48.5545L182.6 8H137.657L100.947 75.0074Z" fill="url(#paint0_linear_55_586)"/>
<path d="M163.626 52.799L50.4881 117.812L54.1724 128.057L153.93 75.6928L163.626 52.799Z" fill="url(#paint1_linear_55_586)"/>
<path d="M147.325 91.2889L45.8112 154.297L42.8342 155.74L39.8672 162.475L139.276 110.294L147.325 91.2889Z" fill="url(#paint2_linear_55_586)"/>
<path d="M11 228L27.7851 189.9L46.8261 180.673L138.67 123.666L182.6 228H137.657L100.947 157.478L55.9429 228H11Z" fill="url(#paint3_linear_55_586)"/>
<path d="M55.9429 8L61.7616 4.09191L59.6787 0.99064H55.9429V8ZM100.947 75.0074L95.1287 78.9155L101.556 88.4851L107.095 78.3751L100.947 75.0074ZM11 8V0.99064H1.03066L4.40414 10.3719L11 8ZM45.738 104.602L39.1421 106.974L41.7448 114.212L48.7106 110.95L45.738 104.602ZM165.424 48.5545L168.397 54.9023L170.83 53.7627L171.878 51.2881L165.424 48.5545ZM182.6 8L189.054 10.7336L193.181 0.99064H182.6V8ZM137.657 8V0.99064H133.505L131.51 4.63223L137.657 8ZM50.4881 117.812L46.9958 111.734L41.9057 114.659L43.8923 120.184L50.4881 117.812ZM163.626 52.799L170.081 55.5327L178.212 36.3333L160.134 46.7216L163.626 52.799ZM54.1724 128.057L47.5766 130.429L50.3011 138.006L57.4302 134.263L54.1724 128.057ZM153.93 75.6928L157.188 81.8991L159.407 80.7343L160.384 78.4264L153.93 75.6928ZM147.325 91.2889L153.779 94.0225L162.392 73.6872L143.628 85.3335L147.325 91.2889ZM45.8112 154.297L48.8679 160.605L49.1969 160.445L49.5076 160.253L45.8112 154.297ZM42.8342 155.74L39.7775 149.432L37.4586 150.556L36.4198 152.914L42.8342 155.74ZM39.8672 162.475L33.4527 159.649L25.3669 178.002L43.125 168.681L39.8672 162.475ZM139.276 110.294L142.533 116.5L144.753 115.335L145.73 113.027L139.276 110.294ZM27.7851 189.9L24.7284 183.592L22.4095 184.716L21.3706 187.074L27.7851 189.9ZM11 228L4.58553 225.174L0.252601 235.009H11V228ZM46.8261 180.673L49.8827 186.981L50.2118 186.821L50.5225 186.628L46.8261 180.673ZM138.67 123.666L145.13 120.946L141.946 113.383L134.974 117.711L138.67 123.666ZM182.6 228V235.009H193.157L189.06 225.28L182.6 228ZM137.657 228L131.44 231.236L133.404 235.009H137.657V228ZM100.947 157.478L107.165 154.242L101.564 143.482L95.0387 153.707L100.947 157.478ZM55.9429 228V235.009H59.7848L61.8516 231.771L55.9429 228ZM50.1241 11.9081L95.1287 78.9155L106.766 71.0993L61.7616 4.09191L50.1241 11.9081ZM11 15.0094H55.9429V0.99064H11V15.0094ZM52.3338 102.23L17.5959 5.62814L4.40414 10.3719L39.1421 106.974L52.3338 102.23ZM162.451 42.2067L42.7654 98.2542L48.7106 110.95L168.397 54.9023L162.451 42.2067ZM176.146 5.26638L158.97 45.8209L171.878 51.2881L189.054 10.7336L176.146 5.26638ZM137.657 15.0094H182.6V0.99064H137.657V15.0094ZM107.095 78.3751L143.804 11.3678L131.51 4.63223L94.8001 71.6396L107.095 78.3751ZM53.9804 123.889L167.119 58.8765L160.134 46.7216L46.9958 111.734L53.9804 123.889ZM60.7683 125.685L57.084 115.44L43.8923 120.184L47.5766 130.429L60.7683 125.685ZM57.4302 134.263L157.188 81.8991L150.672 69.4865L50.9146 121.851L57.4302 134.263ZM157.172 50.0654L147.476 72.9592L160.384 78.4264L170.081 55.5327L157.172 50.0654ZM143.628 85.3335L42.1147 148.342L49.5076 160.253L151.021 97.2444L143.628 85.3335ZM42.7545 147.989L39.7775 149.432L45.8909 162.048L48.8679 160.605L42.7545 147.989ZM46.2816 165.3L49.2487 158.566L36.4198 152.914L33.4527 159.649L46.2816 165.3ZM136.018 104.087L36.6094 156.268L43.125 168.681L142.533 116.5L136.018 104.087ZM140.87 88.5553L132.821 107.56L145.73 113.027L153.779 94.0225L140.87 88.5553ZM21.3706 187.074L4.58553 225.174L17.4145 230.826L34.1995 192.726L21.3706 187.074ZM43.7694 174.365L24.7284 183.592L30.8417 196.208L49.8827 186.981L43.7694 174.365ZM134.974 117.711L43.1296 174.717L50.5225 186.628L142.366 129.622L134.974 117.711ZM189.06 225.28L145.13 120.946L132.21 126.386L176.14 230.72L189.06 225.28ZM137.657 235.009H182.6V220.991H137.657V235.009ZM94.73 160.714L131.44 231.236L143.875 224.764L107.165 154.242L94.73 160.714ZM61.8516 231.771L106.856 161.249L95.0387 153.707L50.0341 224.229L61.8516 231.771ZM11 235.009H55.9429V220.991H11V235.009Z" fill="#131313" mask="url(#path-1-outside-1_55_586)"/>
<defs>
<linearGradient id="paint0_linear_55_586" x1="134.591" y1="7.99998" x2="233.463" y2="27.9305" gradientUnits="userSpaceOnUse">
<stop offset="0.260417" stop-color="#F13C88"/>
<stop offset="0.703125" stop-color="#6343F2"/>
<stop offset="1" stop-color="#40ECC2"/>
</linearGradient>
<linearGradient id="paint1_linear_55_586" x1="134.591" y1="7.99998" x2="233.463" y2="27.9305" gradientUnits="userSpaceOnUse">
<stop offset="0.260417" stop-color="#F13C88"/>
<stop offset="0.703125" stop-color="#6343F2"/>
<stop offset="1" stop-color="#40ECC2"/>
</linearGradient>
<linearGradient id="paint2_linear_55_586" x1="134.591" y1="7.99998" x2="233.463" y2="27.9305" gradientUnits="userSpaceOnUse">
<stop offset="0.260417" stop-color="#F13C88"/>
<stop offset="0.703125" stop-color="#6343F2"/>
<stop offset="1" stop-color="#40ECC2"/>
</linearGradient>
<linearGradient id="paint3_linear_55_586" x1="134.591" y1="7.99998" x2="233.463" y2="27.9305" gradientUnits="userSpaceOnUse">
<stop offset="0.260417" stop-color="#F13C88"/>
<stop offset="0.703125" stop-color="#6343F2"/>
<stop offset="1" stop-color="#40ECC2"/>
</linearGradient>
</defs>
</svg>
