<svg width="24" height="24" viewBox="0 0 24 24" fill="none" xmlns="http://www.w3.org/2000/svg">
    <path d="M15.3724 3.00034L15.3723 3.00016C15.2409 2.85452 15.0812 2.73715 14.903 2.65518C14.7248 2.57321 14.5318 2.52835 14.3357 2.52333C14.1396 2.51831 13.9445 2.55325 13.7624 2.626C13.5802 2.69876 13.4148 2.80781 13.2761 2.94654L13.276 2.94664L2.93113 13.2906M15.3724 3.00034L2.93113 13.2906M15.3724 3.00034L16.4567 4.2012L16.4568 4.2013C16.7131 4.48496 16.7046 4.9348 16.5436 5.34371L16.5432 5.34477C16.3952 5.72214 16.3553 6.13328 16.428 6.53205C16.5008 6.93082 16.6832 7.30142 16.9549 7.60226C17.2265 7.9031 17.5767 8.12226 17.966 8.23514C18.3553 8.34803 18.7683 8.35016 19.1588 8.24131L19.1594 8.24116C19.5806 8.12339 20.0297 8.16068 20.2865 8.44502L21.2076 9.46629L21.2076 9.46634C21.4575 9.74336 21.5907 10.1062 21.5795 10.4791C21.5682 10.852 21.4133 11.2061 21.1472 11.4676L11.2662 21.1721L11.2661 21.1721C11.0011 21.4324 10.646 21.5808 10.2745 21.5863C9.90306 21.5919 9.54369 21.4543 9.27096 21.202L8.39682 20.393L8.39649 20.3927C8.10825 20.1262 8.08215 19.661 8.21822 19.2316C8.34365 18.8372 8.35417 18.4153 8.24856 18.0151C8.1429 17.6148 7.92538 17.2529 7.62146 16.9718C7.31755 16.6906 6.93983 16.5019 6.53252 16.4276C6.12522 16.3534 5.70519 16.3967 5.32163 16.5526L5.32162 16.5526C4.90515 16.7218 4.43899 16.7322 4.1502 16.4653L3.64111 17.016L4.1502 16.4653L2.97178 15.376C2.97173 15.3759 2.97168 15.3759 2.97163 15.3758M15.3724 3.00034L2.97163 15.3758M2.93113 13.2906C2.79341 13.4283 2.68491 13.5924 2.61214 13.7731C2.53936 13.9537 2.5038 14.1472 2.5076 14.342C2.51139 14.5367 2.55446 14.7286 2.63422 14.9063C2.71396 15.0839 2.82872 15.2436 2.97163 15.3758M2.93113 13.2906L2.97163 15.3758" fill="#313131" stroke="#ACACAC" stroke-width="1.5" />
</svg>
