<svg width="17" height="17" viewBox="0 0 17 17" fill="none" xmlns="http://www.w3.org/2000/svg">
    <rect x="0.7" y="0.402881" width="15.6" height="15.6" rx="1.2375" fill="#4A4ADC" />
    <path d="M12.25 7.73413C12.25 9.8052 10.5711 11.4841 8.5 12.4216C6.42893 11.4841 4.75 9.8052 4.75 7.73413C4.75 5.66306 6.42893 3.98413 8.5 3.98413C10.5711 3.98413 12.25 5.66306 12.25 7.73413Z" fill="white" />
    <path d="M9.90625 7.73413C9.90625 8.51078 9.27665 9.14038 8.5 9.14038C7.72335 9.14038 7.09375 8.51078 7.09375 7.73413C7.09375 6.95748 7.72335 6.32788 8.5 6.32788C9.27665 6.32788 9.90625 6.95748 9.90625 7.73413Z" fill="white" />
    <path d="M12.25 7.73413C12.25 9.8052 10.5711 11.4841 8.5 12.4216C6.42893 11.4841 4.75 9.8052 4.75 7.73413C4.75 5.66306 6.42893 3.98413 8.5 3.98413C10.5711 3.98413 12.25 5.66306 12.25 7.73413Z" stroke="#363636" stroke-width="0.46875" stroke-linecap="round" stroke-linejoin="round" />
    <path d="M9.90625 7.73413C9.90625 8.51078 9.27665 9.14038 8.5 9.14038C7.72335 9.14038 7.09375 8.51078 7.09375 7.73413C7.09375 6.95748 7.72335 6.32788 8.5 6.32788C9.27665 6.32788 9.90625 6.95748 9.90625 7.73413Z" stroke="#363636" stroke-width="0.46875" stroke-linecap="round" stroke-linejoin="round" />
    <rect x="0.7" y="0.402881" width="15.6" height="15.6" rx="1.2375" stroke="#363636" stroke-width="0.6" />
</svg>
