<svg width="17" height="17" viewBox="0 0 17 17" fill="none" xmlns="http://www.w3.org/2000/svg">
    <path d="M8.49999 8.50008C8.88958 8.50008 9.2232 8.36125 9.50087 8.08358C9.77806 7.80639 9.91666 7.473 9.91666 7.08342C9.91666 6.69383 9.77806 6.36021 9.50087 6.08254C9.2232 5.80535 8.88958 5.66675 8.49999 5.66675C8.11041 5.66675 7.77702 5.80535 7.49983 6.08254C7.22216 6.36021 7.08333 6.69383 7.08333 7.08342C7.08333 7.473 7.22216 7.80639 7.49983 8.08358C7.77702 8.36125 8.11041 8.50008 8.49999 8.50008ZM8.49999 15.5834C6.5993 13.9661 5.1798 12.4637 4.24149 11.0763C3.30272 9.68937 2.83333 8.40564 2.83333 7.22508C2.83333 5.45425 3.40306 4.04348 4.54254 2.99279C5.68154 1.9421 7.00069 1.41675 8.49999 1.41675C9.9993 1.41675 11.3185 1.9421 12.4575 2.99279C13.5969 4.04348 14.1667 5.45425 14.1667 7.22508C14.1667 8.40564 13.6975 9.68937 12.7592 11.0763C11.8204 12.4637 10.4007 13.9661 8.49999 15.5834Z" fill="#6B6B6B" />
</svg>
