<svg width="236" height="70" viewBox="0 0 236 70" fill="none" xmlns="http://www.w3.org/2000/svg">
<path d="M19.7378 25.4997C24.1824 25.4997 27.8825 27.1997 30.8382 30.5999C33.7938 34 35.2716 38.1445 35.2716 43.0336V54.7673C35.2716 55.7896 35.2383 56.5563 35.1716 57.0674C35.105 57.5785 34.9161 58.1452 34.6049 58.7674C33.9827 59.9675 32.2493 60.5675 29.4048 60.5675C26.2491 60.5675 24.4268 59.7452 23.9379 58.1007C23.6713 57.3452 23.5379 56.2118 23.5379 54.7006V42.9669C23.5379 41.1446 23.0157 39.7224 21.9712 38.7001C20.9267 37.6779 19.5267 37.1667 17.7711 37.1667C16.0155 37.1667 14.5932 37.7001 13.5043 38.7668C12.4153 39.8335 11.8709 41.2335 11.8709 42.9669V54.7673C11.8709 55.7896 11.8375 56.5563 11.7709 57.0674C11.7042 57.5785 11.4931 58.1452 11.1375 58.7674C10.5597 59.9675 8.84855 60.5675 6.00401 60.5675C3.20392 60.5675 1.49276 59.9675 0.870515 58.7674C0.559394 58.1007 0.370499 57.5118 0.30383 57.0007C0.237161 56.4896 0.203827 55.7229 0.203827 54.7006V31.0999C0.203827 30.1221 0.237161 29.3776 0.30383 28.8665C0.370499 28.3553 0.581617 27.7887 0.937184 27.1664C1.55943 26.0553 3.27059 25.4997 6.07068 25.4997C8.78188 25.4997 10.4486 26.0108 11.0708 27.0331C11.5153 27.7887 11.7375 28.6998 11.7375 29.7665C11.9153 29.4554 12.3153 29.0109 12.9376 28.4331C13.5598 27.8553 14.1598 27.3886 14.7376 27.0331C16.2488 26.0108 17.9155 25.4997 19.7378 25.4997ZM55.4723 25.9664L59.8058 25.5664C62.8725 25.5664 64.6726 26.4108 65.2059 28.0998C65.4726 28.9442 65.6059 30.0554 65.6059 31.4332C65.6059 32.811 65.4615 33.9111 65.1726 34.7333C64.8837 35.5556 64.4281 36.1445 63.8059 36.5C62.8725 37.0334 61.5169 37.3001 59.7391 37.3001L55.4723 37.0334V54.9006C55.4723 56.5896 55.2612 57.8452 54.8389 58.6674C54.4167 59.4897 53.7722 60.0341 52.9055 60.3008C52.0388 60.5675 50.9166 60.7008 49.5388 60.7008C48.1609 60.7008 47.0609 60.5564 46.2387 60.2675C45.4164 59.9786 44.8275 59.5119 44.4719 58.8674C44.1164 58.223 43.9052 57.6341 43.8386 57.1007C43.7719 56.5674 43.7386 55.7896 43.7386 54.7673V37.1001H41.3385C40.1829 37.0112 39.3607 36.7445 38.8717 36.3C38.0273 35.4556 37.605 33.8333 37.605 31.4332C37.605 27.7887 38.9162 25.9664 41.5385 25.9664H43.7386V22.4329C43.7386 19.0106 44.9608 15.9105 47.4054 13.1326C49.8499 10.3548 53.3833 8.96582 58.0057 8.96582C59.028 8.96582 59.7946 8.99916 60.3058 9.06582C60.8169 9.13249 61.4058 9.34361 62.0725 9.69918C63.2725 10.277 63.8726 11.9881 63.8726 14.8327C63.8726 16.9661 63.4948 18.4995 62.7392 19.4328C62.1169 20.144 61.1391 20.544 59.8058 20.6329C59.4057 20.6329 58.7835 20.6329 57.939 20.6329C56.2945 20.6329 55.4723 21.1884 55.4723 22.2996V25.9664ZM89.6734 37.3001L85.3399 37.0334V46.2337C85.3399 47.4337 85.5288 48.3004 85.9066 48.8338C86.2844 49.3671 86.9955 49.6338 88.04 49.6338C89.0845 49.6338 89.8845 49.6671 90.4401 49.7338C90.9957 49.8005 91.5846 50.0116 92.2068 50.3672C93.2291 50.945 93.7402 52.4339 93.7402 54.834C93.7402 57.6341 93.1179 59.3452 91.8735 59.9675C91.2068 60.2786 90.6179 60.4675 90.1067 60.5342C89.5956 60.6008 88.8511 60.6342 87.8733 60.6342C83.251 60.6342 79.7397 59.5897 77.3397 57.5007C74.9396 55.4118 73.7395 51.8783 73.7395 46.9004V37.0334C72.8951 37.1667 71.9839 37.2334 71.0061 37.2334C70.0283 37.2334 69.2172 36.8556 68.5727 36.1C67.9282 35.3445 67.606 34.0555 67.606 32.2332C67.606 30.411 67.7171 29.0887 67.9394 28.2664C68.1616 27.4442 68.4727 26.8553 68.8727 26.4997C69.5839 25.9219 70.4728 25.633 71.5395 25.633L73.7395 25.8997V19.0328C73.7395 18.0106 73.7729 17.255 73.8395 16.7661C73.9062 16.2772 74.1173 15.7438 74.4729 15.166C75.0507 14.0549 76.7619 13.4993 79.6064 13.4993C82.6287 13.4993 84.4288 14.3215 85.0066 15.966C85.2288 16.6772 85.3399 17.8106 85.3399 19.3662V25.8997C87.2955 25.7219 88.7734 25.633 89.7734 25.633C90.7734 25.633 91.529 25.6664 92.0401 25.733C92.5513 25.7997 93.1402 26.0108 93.8069 26.3664C94.9624 26.9442 95.5402 28.6553 95.5402 31.4999C95.5402 34.3 94.9402 36.0111 93.7402 36.6334C93.0735 36.9445 92.4846 37.1334 91.9735 37.2001C91.4623 37.2667 90.6956 37.3001 89.6734 37.3001ZM99.207 54.7673V31.3665C99.207 30.3443 99.2404 29.5776 99.307 29.0665C99.3737 28.5553 99.5626 27.9664 99.8737 27.2997C100.496 26.1442 102.229 25.5664 105.074 25.5664C107.207 25.5664 108.718 25.9441 109.607 26.6997C110.363 27.322 110.763 28.2776 110.807 29.5665C110.852 30.0109 110.874 30.6554 110.874 31.4999V54.834C110.874 55.8562 110.841 56.6229 110.774 57.134C110.707 57.6452 110.496 58.2341 110.141 58.9008C109.563 60.0564 107.852 60.6342 105.007 60.6342C102.207 60.6342 100.496 60.0341 99.8737 58.8341C99.5626 58.1674 99.3737 57.5896 99.307 57.1007C99.2404 56.6118 99.207 55.834 99.207 54.7673ZM110.174 18.9995C109.841 19.6439 109.252 20.0995 108.407 20.3662C107.563 20.6329 106.441 20.7662 105.041 20.7662C103.641 20.7662 102.518 20.6329 101.674 20.3662C100.829 20.0995 100.24 19.6328 99.9071 18.9661C99.5737 18.2995 99.3737 17.7105 99.307 17.1994C99.2404 16.6883 99.207 15.9216 99.207 14.8993C99.207 13.8771 99.2404 13.1104 99.307 12.5993C99.3737 12.0881 99.5626 11.5215 99.8737 10.8992C100.496 9.69918 102.229 9.09916 105.074 9.09916C107.874 9.09916 109.563 9.69918 110.141 10.8992C110.496 11.5659 110.707 12.1548 110.774 12.6659C110.841 13.1771 110.874 13.9438 110.874 14.966C110.874 15.9883 110.841 16.755 110.774 17.2661C110.707 17.7772 110.507 18.355 110.174 18.9995ZM147.942 35.5667L140.542 43.0336L147.942 50.5005C149.542 52.1006 150.342 53.4673 150.342 54.6006C150.342 55.734 149.542 57.0896 147.942 58.6674C146.342 60.2453 144.986 61.0342 143.875 61.0342C142.764 61.0342 141.408 60.2341 139.808 58.6341L132.475 51.2339L125.075 58.6341C123.474 60.2341 122.13 61.0342 121.041 61.0342C119.952 61.0342 118.597 60.2453 116.974 58.6674C115.352 57.0896 114.541 55.734 114.541 54.6006C114.541 53.4673 115.341 52.1006 116.941 50.5005L124.341 43.0336L116.941 35.5667C115.341 33.9666 114.541 32.5999 114.541 31.4665C114.541 30.3332 115.352 28.9665 116.974 27.3664C118.597 25.7664 119.952 24.9663 121.041 24.9663C122.13 24.9663 123.474 25.7664 125.075 27.3664L132.475 34.8333L139.808 27.3664C141.408 25.7664 142.764 24.9663 143.875 24.9663C144.986 24.9663 146.342 25.7664 147.942 27.3664C149.542 28.9665 150.342 30.3332 150.342 31.4665C150.342 32.5999 149.542 33.9666 147.942 35.5667Z" fill="url(#paint0_linear_1402_6)"/>
<path d="M235.709 14.4644C235.547 13.9076 235.178 13.4474 234.669 13.1684C233.538 12.5474 232.577 14.298 233.709 14.9186C233.796 14.9766 233.819 15.0534 233.778 15.1489L227.549 26.4633L206.264 14.7868L206.682 12.5539C206.718 12.3616 206.725 12.1709 206.71 11.9845C206.714 11.9776 206.718 11.9712 206.722 11.9642L211.65 3.01352C211.696 2.9306 211.802 2.90079 211.886 2.9471L217.252 5.8905C217.324 5.93016 217.358 6.01548 217.332 6.09334C216.384 8.94956 217.618 12.0772 220.266 13.5299C221.219 14.0527 222.257 14.3048 223.285 14.3048C225.112 14.3048 226.905 13.5077 228.125 12.0171C228.178 11.9524 228.27 11.9346 228.343 11.9749L229.989 12.8779C231.121 13.4982 232.081 11.7484 230.95 11.1277L229.304 10.2247C228.387 9.72178 227.242 9.94418 226.58 10.7527C225.283 12.3378 223.031 12.7693 221.227 11.7797C219.423 10.7904 218.582 8.66354 219.227 6.72221C219.556 5.72946 219.129 4.64353 218.212 4.1403L212.846 1.1969C211.798 0.621532 210.477 1.00511 209.901 2.05071L205.428 10.1758C205.277 10.1088 205.118 10.0562 204.949 10.0244L198.932 8.89166C197.903 8.69814 196.884 9.26593 196.508 10.2412C195.772 12.1494 193.77 13.2592 191.747 12.8772C189.724 12.4965 188.259 10.7345 188.263 8.68763C188.266 7.6427 187.522 6.74391 186.494 6.55052L180.478 5.41788C179.909 5.31034 179.332 5.43106 178.854 5.75674C178.374 6.08322 178.052 6.57661 177.945 7.14612L175.384 20.8155L173.968 28.3748C173.73 29.6435 175.693 30.0111 175.931 28.7424L177.163 22.1651L201.975 26.8359L194.462 66.9398C194.401 67.2729 192.668 66.7738 192.49 66.7404L199.481 29.4262C199.573 28.9339 199.173 28.3535 198.684 28.2615L179.715 24.6908C179.107 24.6343 178.718 24.9001 178.55 25.488L171.56 62.8004C171.308 62.753 169.589 62.5902 169.65 62.2675L174.972 33.8583C175.21 32.5896 173.248 32.2224 173.01 33.4907L167.688 61.8997C167.468 63.0732 168.245 64.208 169.421 64.4292L172.172 64.9472L175.438 65.5618C176.466 65.7557 177.485 65.1877 177.862 64.2124C178.598 62.3043 180.6 61.1959 182.622 61.5763C184.646 61.9572 186.111 63.7194 186.106 65.766C186.104 66.8109 186.848 67.7096 187.875 67.903L191.141 68.5177L193.892 69.0356C195.029 69.2503 196.21 68.4544 196.425 67.3075L198.512 56.165C199.46 57.2697 199.803 58.8154 199.324 60.2588C198.994 61.2515 199.421 62.3375 200.338 62.8407L205.704 65.7841C206.748 66.3569 208.081 65.9607 208.649 64.9303L228.817 28.2992L235.527 16.1117C235.806 15.605 235.871 15.0199 235.709 14.4644V14.4644ZM190.528 66.371L188.245 65.9413C188.162 65.9257 188.103 65.8541 188.103 65.7709C188.11 62.7624 185.96 60.1733 182.992 59.6146C182.601 59.5409 182.211 59.5055 181.825 59.5055C179.281 59.5055 176.939 61.0567 175.999 63.4942C175.969 63.5709 175.889 63.6148 175.807 63.6001L173.522 63.17L180.328 26.8378L197.334 30.0393L190.528 66.371ZM177.53 20.2029L179.907 7.51386C179.918 7.45783 179.951 7.42469 179.977 7.40672C180.004 7.38822 180.049 7.36866 180.108 7.37984L186.125 8.51247C186.207 8.52805 186.267 8.59978 186.267 8.68297C186.26 11.6915 188.409 14.2805 191.378 14.8391C194.347 15.3985 197.288 13.7665 198.371 10.9597C198.4 10.883 198.482 10.8392 198.562 10.8538L204.579 11.9864C204.673 12.0042 204.737 12.0941 204.719 12.1864L204.171 15.1149C204.17 15.1159 204.17 15.1169 204.17 15.1179L202.561 23.7045C202.561 23.7066 202.561 23.7087 202.56 23.7109L202.342 24.8739L177.53 20.2029ZM200.536 45.3624L201.124 45.5737C201.441 45.6879 201.795 45.6339 202.064 45.4304L203.15 44.6085L203.04 45.973C203.013 46.3078 203.156 46.6336 203.421 46.8401L204.571 47.7377L203.039 48.243C202.747 48.3389 202.517 48.5633 202.412 48.8517L201.884 50.3135L201.21 49.1958C201.029 48.8958 200.704 48.7132 200.355 48.7132C200.348 48.7132 200.341 48.7133 200.334 48.7134L199.906 48.7228L200.536 45.3624ZM201.299 61.0905C201.226 61.0508 201.193 60.9655 201.218 60.8877C202.084 58.2802 201.13 55.4471 198.942 53.8681L199.531 50.7278L199.799 50.722L201.257 53.1381C201.438 53.4395 201.764 53.6207 202.111 53.6207C202.144 53.6207 202.176 53.6191 202.209 53.6159C202.592 53.5782 202.919 53.3237 203.05 52.9617L204.125 49.987L206.972 49.0486C207.322 48.9332 207.58 48.6345 207.643 48.2714C207.706 47.9084 207.564 47.5401 207.274 47.3136L205.073 45.597L205.319 42.5486C205.35 42.1565 205.149 41.7824 204.804 41.5933C204.459 41.404 204.035 41.4351 203.721 41.6726L201.29 43.5122L200.908 43.3749L204.121 26.2233L204.491 24.2475L206.007 21.4946L221.172 29.8141L203.337 62.2085L201.299 61.0905ZM206.9 63.9673C206.854 64.0505 206.749 64.0799 206.664 64.0339L205.087 63.1688L223.403 29.901C223.647 29.3397 223.516 28.8876 223.009 28.5445L206.093 19.2647C205.888 19.1518 205.659 19.1198 205.445 19.1566L205.877 16.8517L226.586 28.2121L206.9 63.9673Z" fill="url(#paint1_linear_1402_6)"/>
<path d="M212.583 12.1791C212.099 11.914 211.492 12.0909 211.227 12.5741C210.962 13.0575 211.139 13.6642 211.622 13.9294L224.563 21.0282C224.715 21.1118 224.88 21.1515 225.042 21.1515C225.395 21.1515 225.736 20.9642 225.918 20.6332C226.183 20.1498 226.006 19.5431 225.523 19.2779L212.583 12.1791Z" fill="url(#paint2_linear_1402_6)"/>
<path d="M208.984 26.4651C208.501 26.1998 207.894 26.3753 207.628 26.8582L202.582 36.0231C202.316 36.506 202.492 37.113 202.975 37.3791C203.128 37.4631 203.293 37.503 203.455 37.503C203.808 37.503 204.149 37.3164 204.331 36.986L209.377 27.8211C209.643 27.3381 209.467 26.7311 208.984 26.4651V26.4651Z" fill="url(#paint3_linear_1402_6)"/>
<path d="M212.178 28.2175C211.695 27.9517 211.088 28.1276 210.822 28.6105L205.776 37.7754C205.511 38.2584 205.686 38.8653 206.169 39.1314C206.322 39.2155 206.487 39.2553 206.65 39.2553C207.002 39.2553 207.344 39.0687 207.525 38.7384L212.571 29.5734C212.837 29.0903 212.661 28.4834 212.178 28.2175V28.2175Z" fill="url(#paint4_linear_1402_6)"/>
<path d="M215.373 29.9699C214.89 29.704 214.283 29.8801 214.017 30.363L208.971 39.5279C208.705 40.0109 208.881 40.6178 209.364 40.8839C209.517 40.968 209.682 41.0078 209.844 41.0078C210.197 41.0078 210.538 40.8212 210.72 40.4908L215.766 31.3259C216.032 30.8428 215.856 30.2359 215.373 29.9699V29.9699Z" fill="url(#paint5_linear_1402_6)"/>
<path d="M198.173 18.6718L183.662 15.9404C182.394 15.7 182.024 17.6637 183.293 17.9022L197.804 20.6336C199.033 20.8666 199.419 18.9061 198.173 18.6718Z" fill="url(#paint6_linear_1402_6)"/>
<path d="M189.606 50.973L186.984 50.033L186.273 47.0628C186.181 46.68 185.873 46.3868 185.487 46.3142C185.1 46.2416 184.706 46.4028 184.482 46.7262L182.74 49.2368L179.955 49.1628C179.584 49.1544 179.243 49.3471 179.06 49.6674C178.878 49.9877 178.888 50.3825 179.085 50.6939L180.689 53.2323L179.633 56.2162C179.505 56.5789 179.596 56.9829 179.868 57.255C180.14 57.5272 180.545 57.6182 180.907 57.4904L183.562 56.5514L185.696 58.3885C185.88 58.5475 186.112 58.6302 186.347 58.6302C186.483 58.6302 186.62 58.6026 186.749 58.5459C187.101 58.3911 187.333 58.0478 187.345 57.6634L187.445 54.5L189.862 52.7158C190.159 52.4968 190.31 52.1323 190.257 51.7676C190.203 51.4029 189.953 51.0975 189.606 50.973V50.973ZM185.869 53.1815C185.623 53.363 185.474 53.6474 185.464 53.9532L185.415 55.5122L184.426 54.661C184.242 54.5026 184.011 54.4193 183.775 54.4193C183.663 54.4193 183.551 54.438 183.442 54.4764L182.213 54.9112L182.733 53.4418C182.835 53.1534 182.799 52.8341 182.635 52.5755L181.771 51.2083L183.226 51.2469C183.563 51.2554 183.881 51.0947 184.073 50.8181L184.851 49.6969L185.168 51.0229C185.247 51.3506 185.485 51.6165 185.802 51.7301L187.171 52.2209L185.869 53.1815Z" fill="url(#paint7_linear_1402_6)"/>
<path d="M182.418 42.8796C182.912 42.9716 183.49 42.5779 183.583 42.0823L185.508 31.8032C185.746 30.5344 183.784 30.1674 183.546 31.4356L181.62 41.7146C181.519 42.2565 181.876 42.7781 182.418 42.8796V42.8796Z" fill="url(#paint8_linear_1402_6)"/>
<path d="M186 43.5539C186.494 43.6459 187.072 43.2522 187.165 42.7565L189.09 32.4775C189.328 31.2088 187.366 30.8416 187.128 32.1098L185.202 42.3889C185.101 42.9307 185.458 43.4523 186 43.5539Z" fill="url(#paint9_linear_1402_6)"/>
<path d="M191.875 31.9867C191.333 31.8856 190.812 32.2424 190.71 32.7841L188.784 43.0632C188.553 44.2967 190.505 44.7185 190.747 43.4308L192.672 33.1517C192.774 32.6099 192.417 32.0883 191.875 31.9867V31.9867Z" fill="url(#paint10_linear_1402_6)"/>
<defs>
<linearGradient id="paint0_linear_1402_6" x1="0.203827" y1="35" x2="150.342" y2="35" gradientUnits="userSpaceOnUse">
<stop/>
<stop offset="1" stop-color="#4A90E2"/>
</linearGradient>
<linearGradient id="paint1_linear_1402_6" x1="167.651" y1="35" x2="235.796" y2="35" gradientUnits="userSpaceOnUse">
<stop/>
<stop offset="1" stop-color="#4A90E2"/>
</linearGradient>
<linearGradient id="paint2_linear_1402_6" x1="211.104" y1="16.6037" x2="226.041" y2="16.6037" gradientUnits="userSpaceOnUse">
<stop/>
<stop offset="1" stop-color="#4A90E2"/>
</linearGradient>
<linearGradient id="paint3_linear_1402_6" x1="202.458" y1="31.9222" x2="209.501" y2="31.9222" gradientUnits="userSpaceOnUse">
<stop/>
<stop offset="1" stop-color="#4A90E2"/>
</linearGradient>
<linearGradient id="paint4_linear_1402_6" x1="205.653" y1="33.6744" x2="212.695" y2="33.6744" gradientUnits="userSpaceOnUse">
<stop/>
<stop offset="1" stop-color="#4A90E2"/>
</linearGradient>
<linearGradient id="paint5_linear_1402_6" x1="208.847" y1="35.4269" x2="215.89" y2="35.4269" gradientUnits="userSpaceOnUse">
<stop/>
<stop offset="1" stop-color="#4A90E2"/>
</linearGradient>
<linearGradient id="paint6_linear_1402_6" x1="182.506" y1="18.2864" x2="198.938" y2="18.2864" gradientUnits="userSpaceOnUse">
<stop/>
<stop offset="1" stop-color="#4A90E2"/>
</linearGradient>
<linearGradient id="paint7_linear_1402_6" x1="178.93" y1="52.4636" x2="190.267" y2="52.4636" gradientUnits="userSpaceOnUse">
<stop/>
<stop offset="1" stop-color="#4A90E2"/>
</linearGradient>
<linearGradient id="paint8_linear_1402_6" x1="181.603" y1="36.7707" x2="185.528" y2="36.7707" gradientUnits="userSpaceOnUse">
<stop/>
<stop offset="1" stop-color="#4A90E2"/>
</linearGradient>
<linearGradient id="paint9_linear_1402_6" x1="185.185" y1="37.445" x2="189.11" y2="37.445" gradientUnits="userSpaceOnUse">
<stop/>
<stop offset="1" stop-color="#4A90E2"/>
</linearGradient>
<linearGradient id="paint10_linear_1402_6" x1="188.765" y1="38.0924" x2="192.689" y2="38.0924" gradientUnits="userSpaceOnUse">
<stop/>
<stop offset="1" stop-color="#4A90E2"/>
</linearGradient>
</defs>
</svg>