<svg width="274" height="53" viewBox="0 0 274 53" fill="none" xmlns="http://www.w3.org/2000/svg">
    <rect x="1.25" y="0.75" width="271.5" height="51.5" rx="4.75" fill="#6138D2" />
    <path d="M35.14 31.5H37.09V27.84H40.195C42.49 27.84 43.675 26.535 43.675 24.51C43.675 22.485 42.565 21.21 40.3 21.21H35.14V31.5ZM37.09 26.175V22.875H40.135C41.17 22.875 41.71 23.475 41.71 24.51C41.71 25.545 41.125 26.175 40.135 26.175H37.09ZM50.4638 31.68C53.1938 31.68 54.8288 30.375 54.8288 27.69V21.21H52.8788V27.63C52.8788 29.22 51.9788 30.03 50.4638 30.03C48.9488 30.03 48.0788 29.22 48.0788 27.63V21.21H46.1288V27.69C46.1288 30.375 47.7488 31.68 50.4638 31.68ZM58.0433 31.5H63.6533C65.4083 31.5 66.8183 30.6 66.8183 28.665C66.8183 27.33 65.9783 26.4 64.8383 26.16V26.1C65.7983 25.785 66.5333 24.93 66.5333 23.745C66.5333 22.23 65.3033 21.21 63.6533 21.21H58.0433V31.5ZM59.9933 25.41V22.875H63.2483C64.0133 22.875 64.5233 23.295 64.5233 24.165C64.5233 24.87 64.0283 25.41 63.1433 25.41H59.9933ZM59.9933 29.835V27.045H63.2783C64.3133 27.045 64.8083 27.6 64.8083 28.44C64.8083 29.4 64.2083 29.835 63.3983 29.835H59.9933ZM69.6341 31.5H76.7441V29.805H71.5841V21.21H69.6341V31.5ZM79.1888 31.5H81.1388V21.21H79.1888V31.5ZM88.2622 31.68C90.7822 31.68 92.6122 30.795 92.6122 28.485C92.6122 24.78 86.1772 25.815 86.1772 23.79C86.1772 23.07 86.9722 22.68 88.3222 22.68C89.5822 22.68 90.4222 23.19 90.4222 24.045V24.195H92.3572V24.015C92.3572 21.93 90.5422 21.03 88.3372 21.03C85.9822 21.03 84.2122 21.945 84.2122 23.88C84.2122 27.675 90.6472 26.445 90.6472 28.755C90.6472 29.52 89.9572 30.03 88.3072 30.03C86.8222 30.03 85.9222 29.445 85.9222 28.455C85.9222 28.38 85.9372 28.245 85.9372 28.2H83.9722C83.9722 28.26 83.9572 28.395 83.9572 28.515C83.9572 30.675 85.9672 31.68 88.2622 31.68ZM95.4271 31.5H97.3771V27.075H102.177V31.5H104.127V21.21H102.177V25.395H97.3771V21.21H95.4271V31.5ZM111.416 31.5H119.531V29.835H113.366V27.075H118.781V25.41H113.366V22.875H119.441V21.21H111.416V31.5ZM125.254 31.5H127.519L131.269 21.21H129.244L126.814 28.305C126.694 28.665 126.559 29.085 126.484 29.31H126.409C126.319 29.055 126.169 28.605 126.064 28.29L123.619 21.21H121.504L125.254 31.5ZM133.558 31.5H141.673V29.835H135.508V27.075H140.923V25.41H135.508V22.875H141.583V21.21H133.558V31.5ZM144.636 31.5H146.511V24.57H146.586C146.661 24.72 146.916 25.14 147.081 25.38L151.491 31.5H153.336V21.21H151.461V28.08H151.386C151.311 27.9 151.041 27.48 150.891 27.285L146.496 21.21H144.636V31.5ZM159.142 31.5H161.092V22.89H164.392V21.21H155.857V22.89H159.142V31.5ZM170.912 31.5H178.022V29.805H172.862V21.21H170.912V31.5ZM180.467 31.5H182.417V21.21H180.467V31.5ZM188.461 31.5H190.726L194.476 21.21H192.451L190.021 28.305C189.901 28.665 189.766 29.085 189.691 29.31H189.616C189.526 29.055 189.376 28.605 189.271 28.29L186.826 21.21H184.711L188.461 31.5ZM196.764 31.5H204.879V29.835H198.714V27.075H204.129V25.41H198.714V22.875H204.789V21.21H196.764V31.5Z" fill="white" />
    <path d="M222.343 19.438C222.436 19.5309 222.51 19.6412 222.56 19.7626C222.61 19.884 222.636 20.0141 222.636 20.1455C222.636 20.2769 222.61 20.407 222.56 20.5284C222.51 20.6498 222.436 20.7601 222.343 20.853C220.842 22.3538 219.999 24.3892 219.999 26.5115C219.999 28.6338 220.842 30.6692 222.343 32.17C222.436 32.2629 222.51 32.3732 222.56 32.4946C222.61 32.6159 222.636 32.746 222.636 32.8774C222.636 33.0087 222.61 33.1388 222.559 33.2601C222.509 33.3814 222.435 33.4917 222.343 33.5845C222.25 33.6773 222.139 33.751 222.018 33.8012C221.897 33.8514 221.767 33.8773 221.635 33.8772C221.504 33.8772 221.374 33.8512 221.252 33.8009C221.131 33.7506 221.021 33.6769 220.928 33.584C217.022 29.678 217.022 23.344 220.928 19.438C221.021 19.345 221.131 19.2713 221.253 19.2209C221.374 19.1706 221.504 19.1447 221.636 19.1447C221.767 19.1447 221.897 19.1706 222.018 19.2209C222.14 19.2713 222.25 19.345 222.343 19.438ZM235.074 19.438C238.98 23.345 238.98 29.678 235.074 33.584C234.885 33.7662 234.633 33.867 234.371 33.8647C234.108 33.8624 233.858 33.7572 233.672 33.5718C233.487 33.3864 233.382 33.1356 233.379 32.8734C233.377 32.6112 233.478 32.3586 233.66 32.17C235.161 30.6692 236.004 28.6338 236.004 26.5115C236.004 24.3892 235.161 22.3538 233.66 20.853C233.472 20.6655 233.367 20.4111 233.367 20.1459C233.367 19.8806 233.472 19.6261 233.66 19.4385C233.847 19.2509 234.101 19.1454 234.367 19.1453C234.632 19.1452 234.886 19.2505 235.074 19.438ZM225.31 22.312C225.498 22.4995 225.603 22.7538 225.603 23.019C225.603 23.2842 225.498 23.5385 225.31 23.726C224.946 24.09 224.657 24.5222 224.46 24.9978C224.263 25.4734 224.162 25.9832 224.162 26.498C224.162 27.0128 224.263 27.5226 224.46 27.9982C224.657 28.4738 224.946 28.906 225.31 29.27C225.406 29.3622 225.482 29.4726 225.534 29.5946C225.587 29.7166 225.614 29.8478 225.615 29.9806C225.616 30.1134 225.591 30.2451 225.541 30.368C225.491 30.4909 225.416 30.6025 225.322 30.6964C225.229 30.7903 225.117 30.8645 224.994 30.9148C224.871 30.9651 224.739 30.9904 224.607 30.9893C224.474 30.9881 224.343 30.9605 224.221 30.9081C224.099 30.8557 223.988 30.7795 223.896 30.684C222.786 29.5738 222.162 28.068 222.162 26.498C222.162 24.928 222.786 23.4222 223.896 22.312C224.084 22.1245 224.338 22.0192 224.603 22.0192C224.868 22.0192 225.123 22.1245 225.31 22.312ZM232.269 22.312C233.379 23.4222 234.003 24.928 234.003 26.498C234.003 28.068 233.379 29.5738 232.269 30.684C232.176 30.7769 232.066 30.8506 231.945 30.9009C231.823 30.9512 231.693 30.9772 231.562 30.9772C231.431 30.9773 231.3 30.9514 231.179 30.9012C231.058 30.851 230.947 30.7773 230.855 30.6845C230.762 30.5917 230.688 30.4814 230.638 30.3601C230.587 30.2388 230.561 30.1087 230.561 29.9774C230.561 29.846 230.587 29.7159 230.637 29.5946C230.688 29.4732 230.761 29.3629 230.854 29.27C231.218 28.906 231.507 28.4738 231.704 27.9982C231.901 27.5226 232.002 27.0128 232.002 26.498C232.002 25.9832 231.901 25.4734 231.704 24.9978C231.507 24.5222 231.218 24.09 230.854 23.726C230.667 23.5384 230.561 23.2839 230.561 23.0186C230.561 22.7534 230.667 22.499 230.855 22.3115C231.042 22.124 231.297 22.0187 231.562 22.0188C231.827 22.0189 232.082 22.1244 232.269 22.312ZM228.082 25.082C228.279 25.082 228.474 25.1208 228.656 25.1962C228.838 25.2716 229.003 25.3821 229.143 25.5213C229.282 25.6606 229.392 25.826 229.468 26.008C229.543 26.19 229.582 26.385 229.582 26.582C229.582 26.779 229.543 26.974 229.468 27.156C229.392 27.338 229.282 27.5034 229.143 27.6427C229.003 27.7819 228.838 27.8924 228.656 27.9678C228.474 28.0432 228.279 28.082 228.082 28.082C227.684 28.082 227.303 27.924 227.021 27.6427C226.74 27.3614 226.582 26.9798 226.582 26.582C226.582 26.1842 226.74 25.8026 227.021 25.5213C227.303 25.24 227.684 25.082 228.082 25.082Z" fill="white" />
    <rect x="1.25" y="0.75" width="271.5" height="51.5" rx="4.75" stroke="#121212" stroke-width="1.5" />
</svg>
