<svg width="45" height="44" viewBox="0 0 45 44" fill="none" xmlns="http://www.w3.org/2000/svg">
    <rect x="1.01142" y="0.511416" width="42.618" height="42.618" rx="2.21613" fill="#FC3B7D" />
    <path d="M13.6 31V31.4H14H17H17.4V31V28.4H26.6V31V31.4H27H30H30.4V31V25V24.6H30H14H13.6V25V28V31ZM29 19.6H28.6V20V23V23.4H29H32H32.4V23V20V19.6H32H29ZM12 19.6H11.6V20V23V23.4H12H15H15.4V23V20V19.6H15H12ZM27 23.4H27.4V23V15C27.4 13.6791 26.3209 12.6 25 12.6H19C17.6791 12.6 16.6 13.6791 16.6 15V23V23.4H17H27Z" fill="white" stroke="#4B4B4B" stroke-width="0.8" />
    <rect x="1.01142" y="0.511416" width="42.618" height="42.618" rx="2.21613" stroke="#363636" stroke-width="1.02283" />
</svg>
