<svg width="19" height="19" viewBox="0 0 19 19" fill="none" xmlns="http://www.w3.org/2000/svg">
    <path d="M16.4881 14.0982C16.4881 15.3312 15.4886 16.3308 14.2556 16.3308C13.0226 16.3308 12.023 15.3312 12.023 14.0982C12.023 12.8652 13.0226 11.8657 14.2556 11.8657C15.4886 11.8657 16.4881 12.8652 16.4881 14.0982Z" fill="#FFDC01" />
    <path d="M16.4881 5.16798C16.4881 6.40099 15.4886 7.40054 14.2556 7.40054C13.0226 7.40054 12.023 6.40099 12.023 5.16798C12.023 3.93498 13.0226 2.93542 14.2556 2.93542C15.4886 2.93542 16.4881 3.93498 16.4881 5.16798Z" fill="#FFDC01" />
    <path d="M7.55789 9.6331C7.55789 10.8661 6.55834 11.8657 5.32533 11.8657C4.09232 11.8657 3.09277 10.8661 3.09277 9.6331C3.09277 8.40009 4.09232 7.40054 5.32533 7.40054C6.55834 7.40054 7.55789 8.40009 7.55789 9.6331Z" fill="#FFDC01" />
    <path d="M12.2579 13.0994L7.33002 10.6354M7.32302 8.63426L12.2555 6.168M16.4881 14.0982C16.4881 15.3312 15.4886 16.3308 14.2556 16.3308C13.0226 16.3308 12.023 15.3312 12.023 14.0982C12.023 12.8652 13.0226 11.8657 14.2556 11.8657C15.4886 11.8657 16.4881 12.8652 16.4881 14.0982ZM16.4881 5.16798C16.4881 6.40099 15.4886 7.40054 14.2556 7.40054C13.0226 7.40054 12.023 6.40099 12.023 5.16798C12.023 3.93498 13.0226 2.93542 14.2556 2.93542C15.4886 2.93542 16.4881 3.93498 16.4881 5.16798ZM7.55789 9.6331C7.55789 10.8661 6.55834 11.8657 5.32533 11.8657C4.09232 11.8657 3.09277 10.8661 3.09277 9.6331C3.09277 8.40009 4.09232 7.40054 5.32533 7.40054C6.55834 7.40054 7.55789 8.40009 7.55789 9.6331Z" stroke="#383838" stroke-width="1.11628" />
</svg>
