<svg width="44" height="44" viewBox="0 0 44 44" fill="none" xmlns="http://www.w3.org/2000/svg">
    <rect x="0.511416" y="0.511416" width="42.618" height="42.618" rx="2.21613" fill="#FFDC01" />
    <path d="M14.9601 23.5855L14.5424 24.0032L14.96 24.4211L19.5763 29.04L19.9941 29.458L20.4121 29.0401L28.8855 20.5667L29.3034 20.1487L28.8853 19.7309L24.2664 15.1146L23.8486 14.697L23.4309 15.1147L14.9601 23.5855ZM34.2541 17.2464L34.2533 17.2455L32.289 15.2799L31.9761 14.9669L31.5877 15.1791C31.2008 15.3905 30.7559 15.4709 30.3195 15.4082C29.8831 15.3456 29.4787 15.1433 29.1669 14.8316L28.7492 15.2495L29.1669 14.8316C28.8551 14.5199 28.6527 14.1156 28.5899 13.6793C28.5271 13.2429 28.6073 12.7979 28.8186 12.411L29.0304 12.0229L28.7179 11.7101L26.7536 9.74454L26.7536 9.74454L26.7516 9.74259C26.3934 9.38742 25.9093 9.18814 25.4048 9.18814C24.9003 9.18814 24.4163 9.38742 24.058 9.74259L24.058 9.74259L24.0562 9.7444L9.74318 24.0574L9.74318 24.0574L9.74137 24.0592C9.3862 24.4175 9.18692 24.9016 9.18692 25.406C9.18692 25.9105 9.3862 26.3946 9.74137 26.7529L9.74346 26.755L11.7091 28.7179L12.0222 29.0307L12.4104 28.8181C12.7975 28.6062 13.2428 28.5255 13.6797 28.5881C14.1165 28.6507 14.5213 28.8532 14.8333 29.1653C15.1452 29.4774 15.3476 29.8822 15.4101 30.3191C15.4725 30.7559 15.3916 31.2013 15.1795 31.5883L14.9664 31.9771L15.2802 32.2903L17.2458 34.2534L17.2465 34.2541C17.6045 34.6104 18.089 34.8104 18.5941 34.8104C19.0992 34.8104 19.5838 34.6104 19.9418 34.2541L19.9428 34.2531L34.2532 19.9427L34.2541 19.9417C34.6104 19.5837 34.8105 19.0991 34.8105 18.594C34.8105 18.0889 34.6104 17.6044 34.2541 17.2464ZM29.7432 20.1489L19.9943 29.899L14.101 24.0034L23.85 14.2557L29.7432 20.1489Z" fill="white" stroke="#4B4B4B" stroke-width="1.18182" />
    <rect x="0.511416" y="0.511416" width="42.618" height="42.618" rx="2.21613" stroke="#363636" stroke-width="1.02283" />
</svg>
