<svg width="11" height="15" viewBox="0 0 11 15" fill="none" xmlns="http://www.w3.org/2000/svg">
    <path d="M5.76586 4.74407L2.88095 0.44873H0L2.22679 6.64117L9.89897 3.04838L11 0.44873H8.11904L5.76586 4.74407Z" fill="url(#paint0_linear_81_835)" />
    <path d="M9.78374 3.32046L2.53129 7.48794L2.76746 8.1447L9.16218 4.78801L9.78374 3.32046Z" fill="url(#paint1_linear_81_835)" />
    <path d="M8.73876 5.78776L2.23149 9.82675L2.04065 9.91923L1.85046 10.3509L8.22279 7.00601L8.73876 5.78776Z" fill="url(#paint2_linear_81_835)" />
    <path d="M0 14.5513L1.07597 12.109L2.29654 11.5175L8.18397 7.86324L11 14.5513H8.11904L5.76586 10.0307L2.88095 14.5513H0Z" fill="url(#paint3_linear_81_835)" />
    <defs>
        <linearGradient id="paint0_linear_81_835" x1="7.9225" y1="0.448729" x2="14.2605" y2="1.72633" gradientUnits="userSpaceOnUse">
            <stop offset="0.260417" stop-color="#F13C88" />
            <stop offset="0.703125" stop-color="#6343F2" />
            <stop offset="1" stop-color="#40ECC2" />
        </linearGradient>
        <linearGradient id="paint1_linear_81_835" x1="7.9225" y1="0.448729" x2="14.2605" y2="1.72633" gradientUnits="userSpaceOnUse">
            <stop offset="0.260417" stop-color="#F13C88" />
            <stop offset="0.703125" stop-color="#6343F2" />
            <stop offset="1" stop-color="#40ECC2" />
        </linearGradient>
        <linearGradient id="paint2_linear_81_835" x1="7.9225" y1="0.448729" x2="14.2605" y2="1.72633" gradientUnits="userSpaceOnUse">
            <stop offset="0.260417" stop-color="#F13C88" />
            <stop offset="0.703125" stop-color="#6343F2" />
            <stop offset="1" stop-color="#40ECC2" />
        </linearGradient>
        <linearGradient id="paint3_linear_81_835" x1="7.9225" y1="0.448729" x2="14.2605" y2="1.72633" gradientUnits="userSpaceOnUse">
            <stop offset="0.260417" stop-color="#F13C88" />
            <stop offset="0.703125" stop-color="#6343F2" />
            <stop offset="1" stop-color="#40ECC2" />
        </linearGradient>
    </defs>
</svg>
